<svg width="81px" height="78px" viewBox="0 0 81 78" version="1.1" xmlns="http://www.w3.org/2000/svg" xmlns:xlink="http://www.w3.org/1999/xlink">
                            <g id="Page-1" stroke="none" stroke-width="1" fill="none" fill-rule="evenodd">
                                <path d="M31.6269531,77.0820312 L31.6269531,45.1484375 L15.6601562,45.1484375 C15.5625,43.9765625 15.4892578,43.2197266 15.4404297,42.8779297 C15.3916016,42.5361328 15.3671875,42.1210938 15.3671875,41.6328125 C15.3671875,37.53125 16.0507812,33.3808594 17.4179688,29.1816406 C20.1523438,20.6855469 24.8886719,15.8027344 31.6269531,14.5332031 L31.6269531,14.5332031 L31.6269531,0.763671875 C22.3496094,1.93554688 14.8300781,6.42773438 9.06835938,14.2402344 C3.30664062,22.0527344 0.42578125,33.1855469 0.42578125,47.6386719 L0.42578125,47.6386719 L0.42578125,77.0820312 L31.6269531,77.0820312 Z M80.9921875,77.0820312 L80.9921875,45.1484375 L65.0253906,45.1484375 C64.8300781,44.4648438 64.7080078,43.8300781 64.6591797,43.2441406 C64.6103516,42.6582031 64.5859375,42.0722656 64.5859375,41.4863281 C64.5859375,34.7480469 65.9775391,28.7910156 68.7607422,23.6152344 C71.5439453,18.4394531 75.6210938,15.4121094 80.9921875,14.5332031 L80.9921875,14.5332031 L80.9921875,0.763671875 C69.859375,2.13085938 61.8515625,7.37988281 56.96875,16.5107422 C52.0859375,25.6416016 49.6445312,36.0175781 49.6445312,47.6386719 L49.6445312,47.6386719 L49.6445312,77.0820312 L80.9921875,77.0820312 Z" id="“" fill="#DAE3E7" fill-rule="nonzero"></path>
                            </g>
                        </svg>
