<?xml version="1.0" encoding="UTF-8"?> <svg xmlns="http://www.w3.org/2000/svg" xmlns:xlink="http://www.w3.org/1999/xlink" width="258px" height="28px" viewBox="0 0 258 28" version="1.1"><title>HymanPlus-white</title><defs><polygon id="path-1" points="0.0613770492 0.699938571 61.6293649 0.699938571 61.6293649 26.5199723 0.0613770492 26.5199723"></polygon></defs><g id="Page-1" stroke="none" stroke-width="1" fill="none" fill-rule="evenodd"><g id="Article-text-desktop-Copy" transform="translate(-592.000000, -135.000000)"><g id="Group-3" transform="translate(-62.000000, -980.000000)"><g id="Group-36" transform="translate(38.000000, 0.000000)"><g id="HymanPlus-white" transform="translate(616.000000, 1115.000000)"><g id="Group-5" transform="translate(0.000000, 0.643797)"><mask id="mask-2" fill="white"><use xlink:href="#path-1"></use></mask><g id="Clip-2"></g><path d="M10.6898361,22.6831243 C16.1933115,22.6831243 19.0268852,18.6577671 19.0268852,13.4863671 C19.0268852,8.31496714 16.1933115,4.17595286 10.6898361,4.17595286 L4.1122623,4.17595286 L4.1122623,22.6831243 L10.6898361,22.6831243 Z M10.6898361,0.699938571 C18.5460984,0.699938571 23.1391475,6.24072429 23.1391475,13.4863671 C23.1391475,20.73201 18.5460984,26.1496671 10.6898361,26.1496671 L0,26.1496671 L0,0.699938571 L10.6898361,0.699938571 L10.6898361,0.699938571 Z" id="Fill-1" fill="#FFFFFE" mask="url(#mask-2)"></path><path d="M34.8928525,4.17595286 L34.8928525,13.3348243 L40.2838033,13.3348243 C44.0687213,13.3348243 45.6236066,11.4405386 45.6236066,8.76012429 C45.6236066,6.07971 43.9152787,4.17595286 41.2351475,4.17595286 L34.8928525,4.17595286 Z M45.1223607,26.1496671 L38.0537705,16.6782386 L34.984918,16.6782386 L34.984918,26.1496671 L30.8931148,26.1496671 L30.8931148,0.699938571 L41.3885902,0.699938571 C47.4137705,0.699938571 49.8483934,4.72529571 49.8483934,8.76012429 C49.8483934,12.4160957 47.4546885,16.2520243 42.8718689,16.6592957 L50.0325246,26.1307243 L45.1223607,26.1496671 L45.1223607,26.1496671 Z" id="Fill-3" fill="#FFFFFE" mask="url(#mask-2)"></path><path d="M56.0883934,24.0848957 C56.0096262,22.6689171 57.1849967,21.4622571 58.7132852,21.3893271 C60.2425967,21.31545 61.5458361,22.4046643 61.6256262,23.8196957 C61.7043934,25.2356743 60.529023,26.4432814 58.9997115,26.5162114 C58.946518,26.5181057 58.8933246,26.5199723 58.8401311,26.5190529 C57.3609443,26.5559914 56.1293115,25.4753014 56.0894164,24.1057329 C56.0883934,24.0981557 56.0883934,24.0915257 56.0883934,24.0848957" id="Fill-4" fill="#FFFFFE" mask="url(#mask-2)"></path></g><polyline id="Fill-6" fill="#FFFFFE" points="95.8635294 0.643797201 99.84 0.643797201 99.84 27.1637972 95.8635294 27.1637972 95.8635294 15.7741135 83.5364706 15.7741135 83.5364706 27.1637972 79.56 27.1637972 79.56 0.643797201 83.5364706 0.643797201 83.5364706 12.2407455 95.8635294 12.2407455 95.8635294 0.643797201"></polyline><polyline id="Fill-7" fill="#FFFFFE" points="126.510354 0.643797201 131.04 0.643797201 121.20039 15.0042736 121.20039 27.1637972 117.393965 27.1637972 117.393965 15.0042736 107.64 0.643797201 112.179162 0.643797201 119.26863 11.2537712 126.510354 0.643797201"></polyline><polyline id="Fill-8" fill="#FFFFFE" points="165.36 27.1637972 161.294223 27.1637972 158.875085 7.91779795 150.743531 24.2423532 147.28762 24.2423532 139.07475 7.91779795 136.665777 27.1637972 132.6 27.1637972 135.923773 0.643797201 139.562643 0.643797201 148.964753 19.7417503 158.356699 0.643797201 162.005734 0.643797201 165.36 27.1637972"></polyline><path d="M179.181752,17.0078314 L187.361314,17.0078314 L183.290511,5.46023189 L179.181752,17.0078314 Z M190.957664,27.1637972 L188.585401,20.4721113 L177.967153,20.4721113 L175.594891,27.1637972 L171.6,27.1637972 L181.259854,0.643797201 L185.378102,0.643797201 L195,27.1637972 L190.957664,27.1637972 L190.957664,27.1637972 Z" id="Fill-9" fill="#FFFFFE"></path><polyline id="Fill-10" fill="#FFFFFE" points="216.123934 0.643797201 219.96 0.643797201 219.96 27.1637972 216.334918 27.1637972 205.076066 7.84870974 205.076066 27.1637972 201.24 27.1637972 201.24 0.643797201 204.980164 0.643797201 216.133525 19.8207083 216.123934 0.643797201"></polyline><polyline id="Fill-11" fill="#FFFFFE" points="257.4 11.0934397 257.4 16.5773025 246.854723 16.5773025 246.854723 27.1637972 241.425277 27.1637972 241.425277 16.5773025 230.88 16.5773025 230.88 11.0934397 241.425277 11.0934397 241.425277 0.643797201 246.854723 0.643797201 246.854723 11.0934397 257.4 11.0934397"></polyline></g></g></g></g></g></svg> 