<?xml version="1.0" standalone="no"?>
<!DOCTYPE svg PUBLIC "-//W3C//DTD SVG 1.1//EN" "http://www.w3.org/Graphics/SVG/1.1/DTD/svg11.dtd" >
<svg xmlns="http://www.w3.org/2000/svg">
<metadata>Generated by IcoMoon</metadata>
<defs>
<font id="drhyman-icons" horiz-adv-x="1024">
<font-face units-per-em="1024" ascent="960" descent="-64" />
<missing-glyph horiz-adv-x="1024" />
<glyph unicode="&#x20;" horiz-adv-x="512" d="" />
<glyph unicode="&#xe900;" glyph-name="stitcher" horiz-adv-x="2253" d="M1687.723 894.101h-33.698v-931.561h33.698v931.561zM1617.792 790.595h-33.792v-724.547h33.792v724.547zM1513.037 790.595h-1513.037v-724.547h1513.037v724.547zM2252.8 790.595h-423.151v-724.547h423.151v724.547zM1759.437 790.595h-33.792v-724.547h33.792v724.547z" />
<glyph unicode="&#xe901;" glyph-name="slider-arrow-right" d="M1024 449.721l-514.582 395.832v-230.615h-509.418v-340.76h509.418v-223.731z" />
<glyph unicode="&#xe902;" glyph-name="menu" horiz-adv-x="1563" d="M80.842 960h1401.263c44.648 0 80.842-36.194 80.842-80.842v0c0-44.648-36.194-80.842-80.842-80.842h-1401.263c-44.648 0-80.842 36.194-80.842 80.842v0c0 44.648 36.194 80.842 80.842 80.842zM80.842 528.842h1401.263c44.648 0 80.842-36.194 80.842-80.842v0c0-44.648-36.194-80.842-80.842-80.842h-1401.263c-44.648 0-80.842 36.194-80.842 80.842v0c0 44.648 36.194 80.842 80.842 80.842zM619.789 97.684h808.421c44.648 0 80.842-36.194 80.842-80.842s-36.194-80.842-80.842-80.842h-808.421c-44.648 0-80.842 36.194-80.842 80.842s36.194 80.842 80.842 80.842z" />
<glyph unicode="&#xe903;" glyph-name="search" d="M428.952 960c-236.41 0-428.952-192.54-428.952-428.952 0-236.409 192.54-428.952 428.952-428.952 103.31 0 198.271 37.027 272.419 98.158l251.663-252.097c16.209-16.209 42.598-16.21 58.808 0 16.212 16.21 16.212 42.598 0 58.808l-252.096 251.663c61.131 74.149 98.158 169.11 98.158 272.419 0 236.413-192.543 428.952-428.952 428.952v0zM428.952 876.977c191.541 0 345.929-154.386 345.929-345.929 0-191.54-154.389-345.929-345.929-345.929-191.541 0-345.929 154.39-345.929 345.929 0 191.543 154.387 345.929 345.929 345.929v0z" />
<glyph unicode="&#xe904;" glyph-name="thin-arrow-left" horiz-adv-x="569" d="M498.524-52.701c16.512-15.457 42.243-15 58.202 1.032s16.413 41.881 1.027 58.469l-447.007 449.059 447.007 433.342c15.386 16.588 14.932 42.437-1.027 58.469s-41.69 16.488-58.202 1.032l-498.413-492.842 498.413-508.56z" />
<glyph unicode="&#xe905;" glyph-name="arrow-right" horiz-adv-x="846" d="M31.732-64c-17.492-0.024-31.695 9.122-31.732 20.418v983.292c0.181 11.32 14.53 20.402 32.058 20.289 8.147-0.055 15.95-2.132 21.795-5.803l782.472-491.605c12.554-7.903 12.814-20.882 0.58-28.989-0.187-0.129-0.387-0.25-0.58-0.374l-782.472-491.453c-5.929-3.709-13.865-5.782-22.122-5.775z" />
<glyph unicode="&#xe906;" glyph-name="youtube" horiz-adv-x="951" d="M221.555 227.886l0.685 161.628 31.234 0.317 31.202 0.38-0.359 24.895-0.392 24.927-180.225 0.697v-50.519l30.484-0.38 30.484-0.317 0.359-160.298c0.163-88.147 0.62-161.058 0.979-161.977 0.49-1.299 6.821-1.615 27.742-1.33l27.122 0.348 0.685 161.628zM741.506 239.257c-1.273 3.231 0.49 40.573 2.187 45.99 3.949 12.733 12.337 18.941 25.555 18.941 10.999 0 17.983-4.118 22.683-13.366 2.97-5.86 3.264-8.362 3.721-30.026l0.457-23.597h-26.926c-23.14 0-26.991 0.285-27.677 2.059v0zM791.768 65.117c26.371 7.19 44.616 24.673 51.502 49.347 1.142 4.213 2.48 16.217 2.937 26.637l0.783 18.941h-50.817l-0.62-16.977c-0.718-19.289-2.774-25.909-10.020-32.085-7.702-6.556-21.867-7.031-31.071-1.014-10.966 7.19-13.675 19.321-13.12 58.722l0.392 27.936 105.159 0.697-0.685 41.555c-0.849 46.37-1.828 53.401-9.857 69.871-15.307 31.198-57.703 46.94-92.92 34.492-26.567-9.407-42.266-26.352-48.565-52.578-2.219-9.249-2.48-17.547-2.48-85.391 0-83.206 0.294-86.595 9.041-103.635 15.633-30.311 54.766-46.148 90.341-36.519v0zM583.572 112.5c3.231 2.122 5.353 5.068 7.017 9.66 2.121 6.050 2.317 13.746 2.024 85.106-0.294 74.369-0.457 78.74-2.937 83.617-6.364 12.448-22.389 13.651-37.076 2.756l-4.83-3.547v-169.642l4.798-3.547c10.868-8.045 22.781-9.724 31.006-4.403v0zM615.394 64.61c7.996 2.249 17.657 11.466 21.998 20.873 8.355 18.022 8.388 18.465 8.388 119.788 0 83.174-0.261 93.436-2.383 102.431-6.887 28.791-21.9 41.365-47.161 39.528-14.132-1.077-25.262-6.525-38.61-19.036-5.81-5.416-10.999-9.882-11.586-9.882-0.522 0-1.012 27.556-1.012 61.193v61.193h-49.348v-375.106h49.348v12.638c0 8.393 0.522 12.638 1.534 12.638 0.816 0 6.364-4.434 12.337-9.882 19.191-17.515 35.804-22.33 56.496-16.375v0zM352.758 65.846c9.857 3.547 21.443 11.339 31.202 20.968 4.471 4.434 8.943 8.045 9.922 8.045 1.306 0 1.762-3.611 1.762-14.633v-14.633h49.348v277.996h-49.348v-214.459l-10.64-10.23c-8.421-8.14-11.945-10.611-17.167-12.004-8.812-2.375-14.426-0.728-18.049 5.321-2.742 4.498-2.807 6.588-3.198 117.983l-0.359 113.39h-49.283v-120.39c0-131.159 0.131-134.009 7.702-146.647 8.29-13.81 27.677-18.149 48.108-10.706v0zM373.712-50.142c-32.050 0.538-69.975 1.394-84.303 1.9-96.183 3.357-162.209 6.936-175.395 9.534-18.799 3.674-39.818 16.027-52.024 30.565-19.517 23.28-29.961 51.532-35.020 95.020-11.717 101.101-11.456 219.020 0.718 316.574 5.353 42.759 18.636 73.64 40.928 95.178 12.729 12.321 24.968 19.162 41.254 23.216 35.314 8.773 311.625 15.742 479.709 12.131 97.097-2.090 201.995-6.461 229.867-9.534 36.065-3.991 61.392-22.108 78.918-56.473 13.251-25.94 17.461-46.148 22.846-108.417 4.21-49.284 5.255-80.007 4.471-136.923-0.881-68.097-5.353-128.087-12.043-161.755-7.050-35.601-23.695-65.944-45.268-82.382-16.613-12.701-34.335-18.37-62.24-19.891-8.29-0.475-18.767-1.109-23.303-1.457-16.058-1.204-102.156-4.561-149.383-5.86-70.171-1.9-192.954-2.566-259.731-1.425zM287.12 567.655c-1.175 1.869-0.979 111.3 0.196 126.788 1.534 19.859-1.926 35.506-16.613 75.477-4.765 12.954-13.381 38.103-19.126 55.84-41.548 128.245-39.361 120.738-35.379 120.77 27.383 0.222 61.163 0.063 61.555-0.317 0.261-0.253 9.139-31.547 19.746-69.586 10.64-38.008 19.485-69.649 19.713-70.346 0.196-0.633 6.43 21.506 13.838 49.22 15.503 58.152 24.217 90.237 24.544 90.522 0.685 0.633 8.388 0.76 33.617 0.633l27.905-0.158-0.62-4.339c-0.49-3.516-19.55-65.595-39.492-128.657-2.154-6.968-7.735-24.927-12.337-39.94-4.602-14.981-10.15-32.782-12.37-39.56l-4.014-12.353v-77.029c0-72.247-0.163-77.093-2.383-77.663-5.026-1.33-57.899-0.697-58.78 0.697zM647.767 563.031c-13.773 1.774-21.835 6.936-27.35 17.547-6.919 13.303-6.919 13.239-6.919 145.792v123.684h55.582l0.587-114.024c0.62-123.842 0.457-120.96 8.094-122.829 7.017-1.679 14.785 1.964 24.446 11.529l9.269 9.154 0.359 108.101 0.326 108.069 27.775 0.38 27.775 0.317v-283.127l-3.786-0.76c-4.537-0.919-46.639-0.855-50.034 0.095-2.056 0.538-2.383 2.375-2.383 13.461v12.859l-7.898-7.475c-18.147-17.135-37.729-25.117-55.843-22.773v0zM507.816 617.097c9.53 7.031 9.595 7.633 10.085 87.228 0.424 61.858 0.196 72.373-1.73 80.798-2.611 11.402-7.18 16.787-16.123 19.162-11.554 2.977-22.128-3.421-25.849-15.678-2.807-9.439-2.774-149.751 0.065-159.19 2.154-7.095 9.041-14.855 14.132-15.932 6.625-1.362 14.752 0.158 19.452 3.611h-0.033zM486.047 563.094c-24.87 2.914-47.716 17.104-58.715 36.488-11.195 19.732-12.239 30.058-11.586 116.969 0.522 67.306 0.718 71.518 3.46 81.178 6.56 22.963 19.256 38.61 38.937 48.080 27.024 12.954 56.169 11.276 81.66-4.751 16.254-10.167 26.11-24.927 31.397-46.876 2.317-9.692 2.546-17.135 2.546-85.106 0-82.667-0.392-87.45-9.139-105.345-8.388-17.262-27.383-32.465-47.194-37.818-8.747-2.312-23.923-3.706-31.365-2.819v0z" />
<glyph unicode="&#xe907;" glyph-name="instagram" horiz-adv-x="1073" d="M522.63 865.709c-134.627 0-150.572-0.507-203.74-2.906-49.157-2.219-75.854-10.343-93.62-17.171-23.535-9.047-40.333-19.855-57.975-37.306s-28.57-34.065-37.715-57.341c-6.905-17.575-15.119-43.981-17.362-92.604-2.426-52.586-2.938-68.357-2.938-201.517s0.512-148.931 2.938-201.519c2.244-48.621 10.457-75.027 17.362-92.602 9.144-23.276 20.072-39.891 37.715-57.341s34.44-28.259 57.975-37.304c17.767-6.83 44.463-14.954 93.622-17.173 53.158-2.399 69.103-2.906 203.738-2.906s150.58 0.507 203.738 2.906c49.159 2.219 75.856 10.343 93.624 17.173 23.533 9.045 40.331 19.853 57.973 37.304s28.57 34.065 37.715 57.341c6.905 17.575 15.119 43.981 17.362 92.604 2.426 52.586 2.938 68.357 2.938 201.517s-0.512 148.931-2.938 201.519c-2.244 48.621-10.457 75.027-17.362 92.602-9.144 23.276-20.072 39.891-37.715 57.341s-34.44 28.259-57.973 37.306c-17.769 6.828-44.465 14.952-93.624 17.171-53.166 2.399-69.111 2.906-203.738 2.906zM522.63 955.567c136.933 0 154.103-0.574 207.879-3.001 53.668-2.423 90.318-10.852 122.391-23.181 33.155-12.745 61.273-29.797 89.303-57.521s45.27-55.536 58.155-88.33c12.465-31.723 20.987-67.973 23.437-121.056 2.454-53.19 3.034-70.173 3.034-205.613s-0.58-152.423-3.034-205.613c-2.45-53.083-10.972-89.333-23.437-121.056-12.885-32.794-30.125-60.605-58.155-88.33s-56.148-44.777-89.303-57.521c-32.073-12.329-68.723-20.758-122.391-23.181-53.776-2.427-70.946-2.999-207.879-2.999s-154.101 0.572-207.879 2.999c-53.668 2.423-90.318 10.852-122.391 23.181-33.155 12.745-61.273 29.797-89.303 57.521s-45.27 55.538-58.155 88.33c-12.465 31.723-20.987 67.973-23.437 121.056-2.454 53.19-3.032 70.173-3.032 205.613s0.578 152.423 3.032 205.613c2.45 53.083 10.972 89.333 23.437 121.056 12.885 32.794 30.125 60.605 58.155 88.33s56.148 44.777 89.303 57.521c32.073 12.329 68.723 20.758 122.391 23.181 53.778 2.427 70.946 3.001 207.879 3.001zM523.631 712.153c-143.097 0-259.101-114.74-259.101-256.277s116.004-256.277 259.101-256.277c143.097 0 259.101 114.74 259.101 256.277s-116.004 256.277-259.101 256.277zM523.631 289.521c-92.887 0-168.189 74.481-168.189 166.356s75.302 166.356 168.189 166.356c92.887 0 168.189-74.481 168.189-166.356s-75.302-166.356-168.189-166.356zM850.76 724.028c0 32.789-26.872 59.368-60.023 59.368s-60.025-26.579-60.025-59.368c0-32.789 26.874-59.37 60.025-59.37s60.023 26.581 60.023 59.37z" />
<glyph unicode="&#xe908;" glyph-name="pinterest" horiz-adv-x="811" d="M28.016 603.309c0-97.155 36.404-183.574 114.429-215.784 12.8-5.275 24.249-0.186 27.963 14.15 2.578 9.899 8.687 34.909 11.388 45.335 3.745 14.15 2.302 19.115-8.042 31.465-22.468 26.841-36.864 61.564-36.864 110.778 0 142.708 105.62 270.49 275.083 270.49 150.034 0 232.449-92.687 232.449-216.435 0-162.846-71.303-300.31-177.107-300.31-58.473 0-102.212 48.872-88.185 108.792 16.79 71.555 49.295 148.79 49.295 200.424 0 46.235-24.556 84.774-75.324 84.774-59.731 0-107.768-62.464-107.768-146.152 0-53.341 17.833-89.367 17.833-89.367s-61.143-261.925-71.856-307.788c-21.333-91.353-3.192-203.309-1.658-214.604 0.89-6.703 9.392-8.316 13.26-3.258 5.525 7.292 76.644 96.1 100.893 184.816 6.814 25.134 39.258 155.244 39.258 155.244 19.43-37.422 76.153-70.376 136.467-70.376 179.624 0 301.45 165.515 301.45 387.070 0 167.532-140.366 323.551-353.692 323.551-265.415 0-399.273-192.387-399.273-352.813z" />
<glyph unicode="&#xe909;" glyph-name="twitter" horiz-adv-x="1138" d="M1000.619 766.281c46.533 29.045 82.238 75.099 98.995 129.962-43.568-26.96-91.712-46.458-143.078-57.014-40.99 45.718-99.575 74.225-164.411 74.225-124.388 0-225.187-105.22-225.187-234.98 0-18.422 1.869-36.373 5.736-53.518-187.162 9.816-353.12 103.27-464.296 245.535-19.399-34.827-30.485-75.167-30.485-118.196 0-81.486 39.765-153.426 100.219-195.648-36.93 1.21-71.668 11.9-102.088 29.381v-2.891c0-113.893 77.597-208.893 180.781-230.408-18.948-5.513-38.799-8.27-59.423-8.27-14.501 0-28.68 1.412-42.343 4.168 28.616-93.319 111.82-161.359 210.428-163.175-77.146-63.065-174.272-100.581-279.776-100.581-18.175 0-36.156 1.008-53.751 3.227 99.704-66.628 218.098-105.556 345.322-105.556 414.412 0 640.888 358.083 640.888 668.633 0 10.219-0.129 20.372-0.58 30.389 44.019 33.146 82.302 74.561 112.4 121.692-40.41-18.691-83.849-31.331-129.351-36.978z" />
<glyph unicode="&#xe90a;" glyph-name="facebook" horiz-adv-x="532" d="M355.872-60.276h-225.353v502.754h-112.607v173.232h112.607v104.003c0 141.314 63.55 225.392 244.218 225.392h150.373v-173.296h-93.983c-70.332 0-74.98-24.208-74.98-69.388l-0.31-86.711h170.305l-19.933-173.232h-150.373v-502.754h0.034z" />
<glyph unicode="&#xe90b;" glyph-name="play" d="M512-64c-282.77 0-512 229.23-512 512s229.23 512 512 512c282.77 0 512-229.23 512-512s-229.23-512-512-512zM698.182 436.364l-279.273 139.636v-279.273l279.273 139.636z" />
<glyph unicode="&#xe90c;" glyph-name="google-play" horiz-adv-x="939" d="M160.043 933.973l559.957-321.963-120.021-120.021zM44.032 960l514.005-512-513.963-512c-26.155 11.563-44.075 37.291-44.075 67.2 0 0.981 0 1.963 0.043 2.901v-0.128 884.011c-0.043 0.811-0.043 1.792-0.043 2.773 0 29.909 17.92 55.637 43.605 67.029l0.469 0.171zM894.037 507.989c17.664-13.099 28.971-33.92 28.971-57.344 0-0.939 0-1.835-0.043-2.773v0.128c0.171-1.835 0.299-4.011 0.299-6.187 0-22.016-10.667-41.557-27.136-53.675l-0.171-0.128-120.021-67.968-129.963 127.957 130.005 130.005zM160.043-37.973l439.979 441.984 120.021-120.021z" />
<glyph unicode="&#xe90d;" glyph-name="facebook-2" d="M967.509 939.702h-911.019c-31.189 0-56.491-24.8-56.491-55.371v-892.96c0-30.613 25.301-55.371 56.491-55.371h490.411v388.684h-133.504v151.434h133.504v111.871c0 129.603 80.811 200.113 198.784 200.113 56.533 0 105.131-4.057 119.296-5.897v-135.5h-81.963c-64 0-76.459-30.153-76.459-74.065v-96.648h152.917l-19.84-151.81h-133.077v-388.182h260.907c31.275 0 56.533 24.758 56.533 55.371v892.96c0 30.571-25.259 55.371-56.491 55.371z" />
<glyph unicode="&#xe90e;" glyph-name="youtube-2" horiz-adv-x="1408" d="M1378.093 806.069c-16.591 58.271-63.047 103.805-122.496 120.068-109.707 28.809-551.232 28.809-551.232 28.809s-440.411 0.575-551.232-28.809c-59.449-16.263-105.905-61.797-122.496-120.068-20.796-110.092-31.049-221.847-30.624-333.809-0.344-111.539 9.908-222.868 30.624-332.544 16.591-58.271 63.047-103.805 122.496-120.068 109.589-28.867 551.232-28.867 551.232-28.867s440.352 0 551.232 28.867c59.449 16.263 105.905 61.797 122.496 120.068 20.283 109.716 30.104 221.044 29.333 332.544 0.85 111.922-8.97 223.678-29.333 333.809v0zM563.447 265.764v413.625l367.488-207.129-367.488-206.496z" />
<glyph unicode="&#xe90f;" glyph-name="spotify" d="M512 949.326c-281.6 0-512-225.833-512-501.851s230.4-501.851 512-501.851c281.6 0 512 225.833 512 501.851s-227.84 501.851-512 501.851zM747.52 224.151c-10.24-15.056-28.16-20.074-43.52-10.037-120.32 72.768-271.36 87.824-450.56 47.676-17.92-5.019-33.28 7.528-38.4 22.583-5.12 17.565 7.68 32.62 23.040 37.639 194.56 42.657 363.52 25.093 496.64-55.204 17.92-7.528 20.48-27.602 12.8-42.657v0zM808.96 362.16c-12.8-17.565-35.84-25.093-53.76-12.546-138.24 82.805-348.16 107.898-509.44 57.713-20.48-5.019-43.52 5.019-48.64 25.093s5.12 42.657 25.6 47.676c186.88 55.204 417.28 27.602 576-67.75 15.36-7.528 23.040-32.62 10.24-50.185zM814.080 502.679c-163.84 95.352-437.76 105.389-593.92 57.713-25.6-7.528-51.2 7.528-58.88 30.111-7.68 25.093 7.68 50.185 30.72 57.713 181.76 52.694 481.28 42.657 670.72-67.75 23.040-12.546 30.72-42.657 17.92-65.241-12.8-17.565-43.52-25.093-66.56-12.546v0z" />
<glyph unicode="&#xe910;" glyph-name="apple-podcast" horiz-adv-x="901" d="M447.643-33.665c0 0 109.012 0 109.012 322.699 0 60.117-48.837 109.020-109.012 109.020s-109.012-48.903-109.012-109.020c0-322.699 109.012-322.699 109.012-322.699zM581.385 76.352c4.797 18.44 8.472 37.067 11.4 55.881l2.18 14.951c4.797 1.994 9.593 4.049 14.327 6.23 75.686 34.263 139.411 92.823 180.026 165.274 18.501 33.267 32.143 69.15 40.241 106.528 9.344 41.739 11.836 85.222 6.852 127.834-4.36 39.87-14.95 78.868-31.769 115.437-19.311 42.985-46.097 82.232-79.735 115.25-34.261 34.263-74.751 62.297-118.979 81.609-45.474 20.558-95.308 31.149-145.765 32.395s-100.914-6.853-148.256-24.919c-45.474-17.443-87.21-42.985-123.339-76.002-34.261-31.149-63.538-69.15-84.718-110.889-18.065-35.509-30.523-73.511-37.376-112.758-6.852-40.493-6.852-82.232-0.623-123.348 5.606-36.132 16.196-71.642 31.769-105.282 36.753-77.871 99.045-142.66 176.288-181.908 9.344-4.361 18.688-8.722 28.655-13.082 0.623-4.984 1.869-10.591 2.492-16.197 3.115-18.066 6.852-36.755 11.213-54.821-16.819 5.607-33.638 11.836-49.834 19.312-89.078 40.493-164.452 110.266-211.172 196.859-21.179 39.247-36.13 80.986-45.474 124.594-10.59 47.969-12.459 98.429-6.229 147.644 6.229 46.1 19.311 91.577 38.621 133.316 23.048 49.215 55.44 94.692 94.062 132.693 37.936 37.939 85.279 69.71 136.981 91.514 53.945 22.676 111.94 34.762 170.246 35.509 58.43 0.623 116.923-9.968 171.305-31.335 52.45-20.683 100.789-51.333 142.027-89.708 39.867-37.067 72.882-81.235 97.052-129.952 20.557-41.116 34.884-85.97 41.736-131.447 7.475-47.346 7.475-95.938-0.623-142.66-6.852-43.608-21.179-86.593-40.49-126.463-43.605-87.839-115.864-160.104-203.697-203.712-21.802-10.591-44.851-19.935-68.522-27.411l-0.872-0.934zM602.939 254.148l0.374 19.437c0 13.082 0 26.165-1.869 39.060-0.623 4.984-1.869 9.345-3.115 14.328 23.048 18.689 42.359 42.362 56.686 69.15 10.59 19.935 18.688 41.739 23.048 64.166 4.983 24.919 6.229 51.084 2.492 77.248-3.115 23.050-9.344 45.477-18.688 66.658-11.836 25.542-28.032 49.215-47.965 69.15-20.557 19.935-43.605 36.132-69.768 47.969-28.655 12.459-59.801 19.935-90.947 20.558s-62.916-4.984-92.193-16.197c-26.163-10.591-50.457-25.542-71.636-44.854s-38.621-41.739-51.080-67.281c-10.59-20.558-18.065-42.362-22.425-65.412-4.36-23.673-4.983-47.969-1.869-71.642 3.115-23.050 9.344-45.477 18.688-66.658 14.327-31.772 35.507-59.805 61.67-82.855l-3.738-16.82c-2.492-13.082-1.869-25.542-1.869-39.247v-17.443c-43.605 26.788-79.735 65.412-104.029 110.266-14.327 25.542-24.294 52.953-29.9 81.609-6.852 31.772-8.098 64.789-3.738 97.184 3.738 29.28 11.836 57.936 23.671 84.101 14.327 32.395 35.507 62.297 60.424 87.839 25.54 25.542 55.44 46.1 87.833 60.428 36.13 16.197 75.374 24.919 114.618 26.165 39.867 0.623 79.735-6.23 116.487-20.558 33.638-13.082 64.161-32.395 90.947-56.69 26.163-24.296 48.588-52.953 64.784-84.724 13.081-26.165 23.048-54.198 28.032-82.855 4.983-29.903 6.229-60.428 1.869-90.331-3.738-29.28-11.836-57.936-24.294-84.724-24.294-54.198-66.030-100.921-117.11-131.447l4.61 4.423zM447.643 650.607c60.673 0 109.884-49.215 109.884-109.954 0-61.051-49.211-110.266-109.884-110.266s-109.884 49.215-109.884 109.643c0 60.428 49.211 109.705 109.884 109.705v0.872z" />
<glyph unicode="&#xe911;" glyph-name="thin-arrow-right" horiz-adv-x="569" d="M70.476 948.701c-16.512 15.457-42.243 15-58.202-1.032s-16.413-41.881-1.027-58.469l447.007-449.059-447.007-433.342c-15.386-16.588-14.932-42.437 1.027-58.469s41.69-16.488 58.202-1.032l498.413 492.842-498.413 508.56z" />
<glyph unicode="&#xe912;" glyph-name="arrow-left" horiz-adv-x="846" d="M814.268 960c17.492 0.024 31.695-9.122 31.732-20.418v-983.292c-0.181-11.32-14.53-20.402-32.058-20.289-8.147 0.055-15.95 2.132-21.795 5.803l-782.472 491.605c-12.554 7.903-12.814 20.882-0.58 28.989 0.187 0.129 0.387 0.25 0.58 0.374l782.472 491.453c5.929 3.709 13.865 5.782 22.122 5.775z" />
<glyph unicode="&#xe913;" glyph-name="slider-arrow-left" d="M0 446.279l514.582-395.832v230.615h509.418v340.76h-509.418v223.731z" />
<glyph unicode="&#xe914;" glyph-name="plus" d="M1024 374.857h-438.857v-438.857h-146.286v438.857h-438.857v146.286h438.857v438.857h146.286v-438.857h438.857v-146.286z" />
<glyph unicode="&#xe915;" glyph-name="b-401k" horiz-adv-x="1262" d="M300.509 599.728c-44.258 0-80.136-35.844-80.136-80.061 0-11.054 8.97-20.015 20.034-20.015s20.034 8.961 20.034 20.015c0 22.108 17.939 40.030 40.068 40.030s40.068-17.922 40.068-40.030c0-11.054 8.97-20.015 20.034-20.015s20.034 8.961 20.034 20.015c0 44.216-35.878 80.061-80.136 80.061zM1187.213 533.478c-47.661 15.994-100.251 0.663-131.823-38.429-16.386 34.118-38.396 65.242-65.11 92.070 74.236 59.61 97.409 162.553 55.865 248.176s-136.785 131.221-229.612 109.928c-92.827-21.294-158.62-103.831-158.617-198.984 0-3.803 0-7.406 0-11.208-13.823 1.601-27.647 2.802-41.671 3.403-18.11 82.409-91.047 141.22-175.497 141.507-11.064 0-20.034-8.961-20.034-20.015v-10.608c-29.621 19.887-64.482 30.544-100.17 30.623-11.064 0-20.034-8.961-20.034-20.015v-181.938c-66.994-30.904-124.884-78.538-168.085-138.305h-72.323c-33.193 0-60.102-26.883-60.102-60.045v-149.513c-0.053-27.116 18.091-50.903 44.275-58.044l67.514-18.214c39.068-70.974 98.996-128.261 171.691-164.124l13.823-107.481c6.627-27.218 32.173-45.509 60.102-43.033h46.879c27.929-2.476 53.475 15.814 60.102 43.033l5.81 46.035c73.638-12.009 148.739-12.009 222.377 0l5.81-46.035c6.627-27.218 32.173-45.509 60.102-43.033h46.879c27.929-2.476 53.475 15.814 60.102 43.033l13.823 107.481c126.615 67.651 202.543 175.333 202.543 289.819-0.106 22.513-3.137 44.917-9.015 66.65 14.574 41.603 60.066 63.612 101.773 49.237 15.42-4.93 28.196-15.867 35.437-30.335s8.332-31.241 3.029-46.523c-7.806-23.375-33.095-36.007-56.496-28.221-8.006 2.603-14.634 8.304-18.399 15.828s-4.354 16.241-1.635 24.202c3.717 11.211 15.816 17.3 27.046 13.61 6.952-3.018 15.013-1.858 20.83 2.998s8.392 12.575 6.655 19.946c-1.737 7.371-7.489 13.132-14.863 14.885-32.195 10.692-66.976-6.682-77.732-38.829-12.418-37.578 7.914-78.113 45.477-90.669 8.579-2.919 17.582-4.407 26.645-4.403 36.401 0.195 68.632 23.54 80.136 58.044 8.676 25.316 6.844 53.049-5.089 77.005s-32.972 42.14-58.418 50.491zM861.46 910.362c73.497 0.059 138.089-48.661 158.164-119.297s-9.255-145.998-71.817-184.533c-14.303-9.148-30.001-15.908-46.479-20.015-54.881 40.967-118.171 69.267-185.314 82.863-7.595 14.467-12.996 29.982-16.027 46.035-1.893 9.895-2.832 19.949-2.805 30.023-0.16 43.651 17.071 85.571 47.891 116.512s72.695 48.36 116.387 48.412zM420.713 797.277v-77.459c-27.237-6.558-54.008-14.916-80.136-25.019v143.709c30.526-4.559 58.693-19.052 80.136-41.231v0zM850.842 119.364c0 0 0 0-1.603-1.201-1.096-0.675-2.105-1.482-3.005-2.402-0.97-0.835-1.843-1.774-2.604-2.802l-1.803-3.202c-0.554-1.214-0.958-2.491-1.202-3.803 0 0 0-1.201 0-1.801l-15.226-117.689c0-2.002-7.012-8.206-20.034-8.206h-47.48c-13.222 0-20.034 6.205-20.034 8.206l-10.618 81.462c-1.454 10.935-11.489 18.633-22.438 17.213-9.161-1.351-16.202-8.799-17.029-18.014-70.729-11.409-142.833-11.409-213.562 0-0.827 9.215-7.868 16.663-17.029 18.014-10.949 1.42-20.984-6.278-22.438-17.213l-10.618-81.462c0-2.002-6.812-8.206-20.034-8.206h-46.879c-13.222 0-20.034 6.205-20.034 8.206l-15.226 117.489c0.085 0.597 0.085 1.204 0 1.801-0.217 1.318-0.622 2.599-1.202 3.803l-1.803 3.202c-0.761 1.028-1.635 1.968-2.604 2.802-0.9 0.92-1.909 1.726-3.005 2.402 0 0-1.002 1.001-1.603 1.201-72.020 33.467-130.966 89.754-167.684 160.121v0c-1.063 1.574-2.344 2.99-3.806 4.203l-2.204 2.602-3.005 1.801c-1.181 0.822-2.46 1.494-3.806 2.002v0l-75.728 20.015c-9 2.415-15.144 10.711-14.825 20.015v149.713c0 11.054 8.97 20.015 20.034 20.015h82.139c2.402 0.043 4.778 0.518 7.012 1.401h1.402c2.030 0.819 3.871 2.045 5.409 3.603v0c1.474 1.144 2.7 2.573 3.606 4.203 42.005 61.397 100.757 109.467 169.287 138.505 29.41 13.371 59.904 24.218 91.155 32.425v-60.045c0-11.054 8.97-20.015 20.034-20.015s20.034 8.961 20.034 20.015v218.765c63.004-8.588 112.339-58.452 120.204-121.492 0.305-5.734 0.305-11.479 0-17.213 0.037-24.541-6.463-48.65-18.832-69.853-5.641-9.507-2.502-21.782 7.012-27.421 3.092-1.833 6.622-2.801 10.217-2.802 7.073 0.001 13.622 3.729 17.229 9.807 15.801 26.898 24.231 57.48 24.441 88.667 15.025-1.001 29.65-2.402 44.075-4.203 1.231-5.158 2.77-10.237 4.608-15.212h-6.211c-7.157 0.787-14.191-2.301-18.452-8.101s-5.101-13.429-2.204-20.015c2.897-6.586 9.091-11.128 16.248-11.914 1.803 0 172.893-20.015 247.019-112.685 3.963-4.277 9.596-6.616 15.426-6.405 4.519 0.026 8.896 1.578 12.421 4.403 8.593 6.874 10.024 19.387 3.205 28.021-0.877 1.116-1.814 2.185-2.805 3.202 7.392 2.623 14.56 5.836 21.436 9.607 53.049-47.264 84.158-114.35 85.946-185.34 0-101.877-71.321-198.75-190.924-260.197zM849.039 704.807c-4.48 7.897-13.718 11.794-22.508 9.493s-14.928-10.223-14.956-19.301c-0.001-16.537 13.3-30.004 29.851-30.223v0-10.608c0-11.054 8.97-20.015 20.034-20.015s20.034 8.961 20.034 20.015v10.608c8.023 0 15.718 3.184 21.391 8.852s8.86 13.355 8.86 21.371v40.030c0 16.692-13.544 30.223-30.251 30.223h-29.851v22.417h23.84c4.48-7.897 13.718-11.794 22.508-9.493s14.928 10.223 14.956 19.301c0 16.692-13.544 30.223-30.251 30.223v0 10.608c0 11.054-8.97 20.015-20.034 20.015s-20.034-8.961-20.034-20.015v-10.608c-16.707 0-30.251-13.531-30.251-30.223v-41.031c-0.013-16.234 12.813-29.578 29.049-30.223h31.053v-21.416h-23.44z" />
<glyph unicode="&#xe916;" glyph-name="b-cellphone" horiz-adv-x="571" d="M118.545 947.895h331.693c31.064 0 59.294-13.074 79.751-34.137s33.154-50.131 33.154-82.117v-771.068c0-31.987-12.698-61.055-33.154-82.117s-48.686-34.137-79.751-34.137h-331.693c-31.064 0-59.294 13.074-79.751 34.137s-33.154 50.131-33.154 82.117v771.068c0 31.986 12.697 61.054 33.154 82.117s48.687 34.137 79.751 34.137zM450.238 916.533h-331.693c-22.656 0-43.266-9.556-58.216-24.95s-24.231-36.615-24.231-59.943v-771.068c0-23.328 9.281-44.549 24.231-59.943s35.56-24.95 58.216-24.95h331.693c22.657 0 43.266 9.556 58.216 24.95s24.231 36.614 24.231 59.943v771.068c0 23.328-9.281 44.549-24.231 59.943s-35.56 24.95-58.216 24.95zM20.87 787.869c-8.41 0-15.229-7.021-15.229-15.681s6.819-15.681 15.229-15.681h527.046c8.41 0 15.229 7.021 15.229 15.681s-6.819 15.681-15.229 15.681h-527.046zM239.681 880.89c-8.41 0-15.229-7.021-15.229-15.681s6.819-15.681 15.229-15.681h89.423c8.41 0 15.229 7.021 15.229 15.681s-6.819 15.681-15.229 15.681h-89.423zM284.392 102.815c12.466 0 23.754-5.205 31.923-13.617s13.225-20.036 13.225-32.87c0-12.836-5.054-24.458-13.225-32.871s-19.458-13.617-31.923-13.617c-12.466 0-23.754 5.204-31.924 13.617s-13.225 20.036-13.225 32.871c0 12.836 5.055 24.458 13.225 32.87s19.458 13.617 31.924 13.617zM294.78 67.023c-2.658 2.736-6.331 4.43-10.388 4.43s-7.731-1.693-10.389-4.43c-2.658-2.736-4.302-6.519-4.302-10.697s1.644-7.962 4.302-10.697c2.657-2.736 6.331-4.43 10.389-4.43s7.731 1.693 10.388 4.43c2.658 2.736 4.302 6.519 4.302 10.697s-1.644 7.961-4.302 10.697zM20.87 168.588c-8.41 0-15.229-7.021-15.229-15.681s6.819-15.681 15.229-15.681h527.046c8.41 0 15.229 7.021 15.229 15.681s-6.819 15.681-15.229 15.681h-527.046z" />
<glyph unicode="&#xe917;" glyph-name="b-health" horiz-adv-x="1001" d="M420.76 948.622c-27.227 0-51.807-6.395-70.719-19.911s-31.628-35.57-31.628-59.733v-22.756c-27.363 0-51.796-6.388-70.719-19.911s-31.628-35.58-31.628-59.733v-136.533h-125.091c-21.591 0-44.125-6.306-61.835-21.689s-29.14-40.134-29.14-69.333v-273.067c0-58.399 42.694-102.4 90.975-102.4h125.091v-125.156c0-21.63 6.627-43.805 22.033-61.511s39.758-29.511 68.942-29.511h272.926c58.368 0 102.347 42.716 102.347 91.022v125.156h136.463c24.14 0 46.186 12.713 59.702 31.644 13.516 18.933 19.901 43.377 19.901 70.756h22.744c24.151 0 45.838 13.078 59.347 32s20.256 43.159 20.256 70.4v147.911c0.278 12.909-12.404 24.525-25.231 23.111-11.176-1.229-20.498-11.865-20.256-23.111v-147.911c0-19.687-5.182-34.921-11.727-44.089s-13.037-12.8-22.388-12.8h-22.744v227.556c0 27.378-6.888 50.696-21.678 67.2s-36.334 23.822-57.926 23.822h-136.463v136.533c0 21.603-7.314 43.514-23.81 58.311s-39.802 21.333-67.165 21.333h-227.438v22.756c0 9.357 3.63 16.207 12.793 22.756s24.39 11.378 44.066 11.378h272.926c35.477 0 56.116-25.997 56.86-45.511 0.004-0.102-0.003-0.25 0-0.356v-136.178c0.001-11.914 10.836-22.754 22.744-22.756h136.463c18.703 0 45.488-21.195 45.488-56.889v-34.133c-0.17-12.022 10.727-23.079 22.744-23.079s22.914 11.057 22.744 23.079v34.133c0 58.159-42.673 102.4-90.975 102.4h-113.719v113.778c0.004 0.237 0.004 0.474 0 0.711-1.282 47.469-44.213 90.311-102.347 90.311h-272.926zM318.413 800.711h272.926c19.986 0 30.821-4.769 36.603-9.956s8.884-11.941 8.884-24.178v-159.289c0.001-11.914 10.835-22.754 22.744-22.756h159.207c12.23 0 18.981-2.748 24.165-8.533s9.95-16.981 9.95-36.978v-273.067c0-19.996-4.914-35.042-11.372-44.089s-13.063-12.8-22.744-12.8h-159.207c-11.908-0.001-22.743-10.841-22.744-22.756v-147.911c0-19.373-20.528-45.511-56.86-45.511h-272.926c-18.166 0-27.895 5.9-34.826 13.867s-10.661 19.435-10.661 31.644v147.911c-0.001 11.914-10.836 22.754-22.744 22.756h-147.835c-19.362 0-45.488 20.538-45.488 56.889v273.067c0 18.175 5.553 27.938 13.504 34.844s19.753 10.667 31.983 10.667h147.835c11.908 0.001 22.743 10.841 22.744 22.756v159.289c0 9.686 3.397 16.294 12.438 22.756s24.435 11.378 44.421 11.378zM536.967 539.022c-27.501 0.63-57.909-11.717-86.711-40.533l-6.752-6.756-6.752 6.756c-24.687 24.7-50.731 37.106-74.983 39.822-8.084 0.906-15.874 0.862-23.455-0.356-27.872-6.096-54.163-22.143-70.008-39.467-39.383-39.661-39.032-104.688-0.711-145.422 0.117-0.12 0.236-0.238 0.355-0.356 51.852-54.105 105.707-115.81 159.207-170.667 8.455-8.744 24.239-8.744 32.694 0 53.5 54.857 107.354 116.562 159.207 170.667 0.12 0.117 0.238 0.236 0.355 0.356 38.321 40.735 39.028 105.762-0.355 145.422-17.087 19.885-46.472 35.198-70.364 39.467-3.79 0.609-7.799 0.977-11.727 1.067zM351.463 493.511c14.168 0.639 30.579-4.64 53.306-27.378l22.744-22.756c8.408-8.317 23.576-8.317 31.983 0l22.744 22.756h0.355c25.825 25.738 43.528 29.506 58.992 27.022 18.329-5.58 37.057-17.623 45.488-27.378 20.949-21.51 20.752-58.363-0.711-81.422-0.059-0.114 0.059-0.299 0-0.356-47.428-49.499-95.732-103.499-142.86-152.889-47.073 49.333-95.129 103.435-142.504 152.889-0.115 0.125-0.241 0.23-0.355 0.356-21.333 23.067-21.616 59.956-0.711 81.422 8.555 11.081 29.339 24.496 45.488 27.378 1.94 0.312 4.017 0.264 6.041 0.356z" />
<glyph unicode="&#xe918;" glyph-name="b-holidays" d="M615.625 888.739l9.014 49.212c1.853 10.162-4.92 19.912-15.11 21.745-10.19 1.845-19.98-4.888-21.833-15.049v0.012l-9.001-49.162c-26.377 3.915-52.629 5.947-78.555 5.947-117.526-0.012-228.48-39.038-317.025-106.541-88.558-67.466-154.795-163.571-182.586-277.419-2.028-8.341 1.915-17.019 9.564-20.997s17.051-2.244 22.759 4.189c27.228 30.684 67.489 49.512 110.941 49.499 9.014 0 18.14-0.786 27.341-2.469l0.013-0.012c59.664-10.81 104.281-54.835 117.777-108.262 1.803-7.094 7.611-12.518 14.872-13.827 7.236-1.309 14.597 1.733 18.778 7.743 36.705 52.791 98.923 86.106 166.788 86.081 6.723 0 13.495-0.387 20.305-1.047l-17.676-96.529-70.844-387.128c-85.904-0.486-165.486-6.77-231.434-17.406-34.377-5.536-65.060-12.219-91.249-19.962-26.189-7.768-47.822-16.421-64.547-26.744-8.813-5.461-11.517-16.969-6.047-25.747s17.051-11.483 25.851-6.022v0c12.218 7.593 31.284 15.56 55.433 22.655 72.621 21.52 190.473 35.971 322.746 35.909 88.245 0 169.93-6.346 236.217-17.019 33.125-5.336 62.394-11.758 86.555-18.902 24.149-7.094 43.202-15.062 55.421-22.667 8.813-5.449 20.381-2.755 25.851 6.010s2.792 20.311-6.022 25.759c-16.738 10.324-38.357 18.989-64.559 26.757-73.047 21.52-182.161 35.397-306.046 37.23l87.268 476.8c72.208-20.286 125.551-76.879 142.576-144.607 1.79-7.107 7.586-12.543 14.847-13.852 7.236-1.309 14.597 1.708 18.803 7.73 26.64 38.24 71.808 62.404 121.107 62.379 9.039 0 18.19-0.786 27.404-2.481h0.038c53.68-9.725 95.105-46.37 112.744-92.589 3.055-8.042 11.254-12.955 19.817-11.932 8.563 1.035 15.335 7.78 16.387 16.296 2.479 20.186 3.693 40.297 3.693 60.222-0.063 234.229-167.726 443.297-408.375 496.2zM177.894 584.5v0c-11.48 2.095-22.884 3.092-34.114 3.092-31.948-0.012-62.394-8.291-89.134-22.804 31.184 80.745 84.226 149.295 151.264 200.415 80.345 61.232 180.696 97.178 287.218 98.674-1.965-1.421-3.943-2.793-5.896-4.302-42.163-32.754-80.909-85.408-114.384-152.101-29.144-58.239-54.081-127.289-72.296-203.308-26.978 40.634-70.255 70.795-122.659 80.333zM533.803 552.793h0.038c-14.947 2.743-29.832 4.040-44.479 4.040-55.784-0.025-108.337-19.014-149.925-51.706 24.324 97.489 60.040 182.187 100.125 243.855 22.834 35.185 47.096 62.803 70.719 81.081 23.711 18.353 46.244 27.069 66.475 27.019 4.219 0 8.388-0.362 12.544-1.122 16.137-2.955 31.022-11.408 45.18-26.183 21.169-22.081 39.522-58.588 51.978-105.694 12.519-47.068 19.367-104.497 19.341-168.11 0.013-36.856-2.316-75.82-7.061-116.080-34.502 57.080-93.14 99.871-164.935 112.9zM878.056 457.361h0.038c-11.517 2.107-22.959 3.105-34.201 3.092-40.273 0-78.242-13.029-109.226-35.41 5.784 45.347 8.701 89.323 8.713 130.929-0.050 88.388-12.469 166.215-36.367 225.514-7.236 17.88-15.699 33.876-25.175 48.165 181.973-71.206 303.142-243.767 304.494-433.796-26.865 30.984-64.346 53.539-108.275 61.506z" />
<glyph unicode="&#xe919;" glyph-name="b-sun" d="M512 128c-176.736 0-320 143.285-320 320 0 176.736 143.264 320 320 320 176.715 0 320-143.264 320-320 0-176.715-143.285-320-320-320v0zM90.453 709.856l83.136-48c7.637-4.427 10.261-14.208 5.856-21.856-4.427-7.637-14.208-10.261-21.856-5.856l-83.136 48.011c-7.637 4.405-10.261 14.208-5.856 21.845 4.416 7.659 14.219 10.283 21.856 5.856v0zM250.144 26.443l48 83.157c4.427 7.659 14.208 10.283 21.856 5.845 7.659-4.405 10.283-14.187 5.856-21.877l-48-83.125c-4.427-7.627-14.208-10.251-21.856-5.877-7.637 4.469-10.261 14.251-5.856 21.877v0zM698.155 802.411l48 83.157c4.405 7.637 14.187 10.261 21.845 5.845 7.659-4.405 10.283-14.208 5.845-21.856l-48-83.136c-4.405-7.637-14.187-10.261-21.845-5.845-7.659 4.395-10.283 14.187-5.845 21.835v0zM866.411 261.877l83.157-48c7.627-4.437 10.251-14.219 5.845-21.877s-14.219-10.283-21.877-5.845l-83.125 48c-7.659 4.405-10.283 14.187-5.845 21.845 4.405 7.659 14.187 10.283 21.845 5.877v0zM277.856 885.557l48-83.157c4.427-7.637 1.792-17.44-5.856-21.845-7.659-4.427-17.44-1.792-21.856 5.845l-48 83.136c-4.405 7.669-1.781 17.461 5.856 21.867 7.659 4.427 17.44 1.803 21.856-5.845v0zM74.453 213.877l83.136 48c7.659 4.405 17.44 1.781 21.856-5.877 4.405-7.659 1.781-17.44-5.856-21.845l-83.136-48c-7.637-4.437-17.44-1.813-21.856 5.845-4.405 7.659-1.781 17.44 5.856 21.877v0zM850.411 661.856l83.125 48c7.659 4.427 17.472 1.792 21.877-5.856 4.405-7.637 1.781-17.44-5.845-21.845l-83.157-48.011c-7.659-4.405-17.44-1.781-21.845 5.856-4.437 7.659-1.813 17.44 5.845 21.856v0zM725.845 109.589l48-83.157c4.437-7.627 1.813-17.408-5.845-21.877-7.659-4.373-17.44-1.749-21.845 5.877l-48 83.125c-4.437 7.691-1.813 17.472 5.845 21.877 7.659 4.437 17.44 1.813 21.845-5.845v0zM512 672c-123.723 0-224-100.277-224-224 0-8.832 7.157-16 16-16 8.832 0 16 7.168 16 16 0 106.048 85.973 192 192 192 8.843 0 16 7.168 16 16 0 8.843-7.157 16-16 16v0zM528 944v-96c0-8.832-7.157-16-16-16-8.832 0-16 7.168-16 16v96c0 8.843 7.168 16 16 16 8.843 0 16-7.157 16-16v0zM16 464h96c8.843 0 16-7.157 16-16 0-8.832-7.157-16-16-16h-96c-8.832 0-16 7.168-16 16 0 8.843 7.168 16 16 16v0zM912 464h96c8.843 0 16-7.157 16-16 0-8.832-7.157-16-16-16h-96c-8.843 0-16 7.168-16 16 0 8.843 7.157 16 16 16v0zM528 48v-96c0-8.843-7.157-16-16-16-8.832 0-16 7.157-16 16v96c0 8.811 7.168 16 16 16 8.843 0 16-7.189 16-16v0zM512 160c159.061 0 288 128.939 288 288s-128.939 288-288 288c-159.061 0-288-128.939-288-288s128.939-288 288-288z" />
<glyph unicode="&#xe91a;" glyph-name="b-supplement" horiz-adv-x="914" d="M117.972 960c-24.254 0-44.24-19.826-44.24-43.886v-117.029c0-23.903 19.739-43.63 43.779-43.886-1.42-21.405-7.043-33.367-13.825-40.686-7.833-8.452-18.702-12.914-32.719-16.914s-30.534-7.167-45.161-17.829c-14.627-10.662-24.989-29.538-25.806-56.229-0.002-0.152-0.002-0.305 0-0.457v-466.743c0-40.734 33.592-74.057 74.654-74.057h308.756v-73.143c0-40.268 33.14-73.143 73.733-73.143h382.028c40.593 0 73.733 32.875 73.733 73.143v248.686c0 20.56-9.969 37.799-22.581 51.2s-28.031 23.766-42.857 33.829c-14.826 10.063-29.167 19.844-38.71 29.257-6.203 6.118-9.955 11.63-11.982 17.371h14.286c24.254 0 44.24 19.826 44.24 43.886v58.514c0 24.060-19.986 43.886-44.24 43.886h-250.691v87.314c0.002 0.152 0.002 0.305 0 0.457-0.817 26.69-11.179 45.567-25.806 56.229s-31.145 13.828-45.161 17.829c-14.017 4.001-24.886 8.462-32.719 16.914-6.782 7.318-12.405 19.281-13.825 40.686 24.040 0.256 43.779 19.983 43.779 43.886v117.029c0 24.060-19.986 43.886-44.24 43.886h-324.424zM117.972 930.743h324.424c8.425 0 14.747-6.271 14.747-14.629v-117.029c0-8.357-6.322-14.629-14.747-14.629h-324.424c-8.425 0-14.747 6.271-14.747 14.629v117.029c0 8.357 6.322 14.629 14.747 14.629zM147.005 755.2h266.359c1.54-27.635 9.289-47.452 21.659-60.8 13.833-14.927 31.43-20.372 46.544-24.686s27.719-8.055 35.484-13.714c7.688-5.604 13.107-12.673 13.825-32.914v-87.314h-44.24c-24.254 0-44.24-19.826-44.24-43.886v-58.514c0-24.060 19.986-43.886 44.24-43.886h12.903c-2.156-5.763-6.218-11.231-12.442-17.371-9.543-9.413-23.423-19.194-38.249-29.257s-30.245-20.427-42.857-33.829c-12.612-13.401-22.581-30.64-22.581-51.2v-146.286h-308.756c-25.138 0-45.161 19.863-45.161 44.8v466.743c0.718 20.242 6.137 27.311 13.825 32.914 7.764 5.659 20.37 9.401 35.484 13.714s32.71 9.759 46.544 24.686c12.37 13.348 20.119 33.165 21.659 60.8zM486.636 506.514h324.424c8.425 0 14.747-6.271 14.747-14.629v-58.514c0-8.357-6.322-14.629-14.747-14.629h-324.424c-8.425 0-14.747 6.271-14.747 14.629v58.514c0 8.357 6.322 14.629 14.747 14.629zM529.954 389.486h236.406c2.639-15.084 11.214-27.64 21.659-37.943 12.577-12.405 28.19-22.503 42.857-32.457s28.28-20.068 37.788-30.171c9.508-10.103 14.747-19.365 14.747-31.086v-248.686c0-24.566-19.476-43.886-44.24-43.886h-382.028c-24.764 0-44.24 19.32-44.24 43.886v248.686c0 11.72 4.778 20.983 14.286 31.086s23.582 20.217 38.249 30.171c14.667 9.955 30.28 20.052 42.857 32.457 10.445 10.303 19.020 22.858 21.659 37.943z" />
<glyph unicode="&#xe91b;" glyph-name="cell-phone" horiz-adv-x="734" d="M681.281 409.6c28.988 0 52.575 23.757 52.575 52.929 0 29.184-23.586 52.918-52.575 52.918-2.249 0-5.199-0.273-8.386-1.252v5.996c3.187-0.978 6.137-1.252 8.386-1.252 28.988 0 52.575 23.734 52.575 52.918s-23.586 52.929-52.575 52.929c-2.249 0-5.199-0.273-8.386-1.252v291.76c0 24.69-19.891 44.703-44.404 44.703h-312.556c-24.524 0-44.404-20.014-44.404-44.703v-405.163l-82.705-55.285-0.689-0.717c-56.304-59.267-74.545-116.986-85.44-151.472-1.367-4.312-2.622-8.294-3.843-11.913-8.646-25.759-72.228-105.335-95.984-133.848l-2.871-3.447 1.062-4.358c0.848-3.516 21.213-86.448 53.739-144.555 33.995-60.757 71.821-67.618 73.415-67.891l4.012-0.649 76.399 64.774c20.863 3.664 156.877 30.561 205.462 118.249h214.413c24.513 0 44.404 20.025 44.404 44.692v28.467c3.187-0.978 6.137-1.24 8.386-1.24 28.988 0 52.575 23.734 52.575 52.907 0 29.195-23.586 52.929-52.575 52.929-2.249 0-5.199-0.262-8.386-1.24v5.996c3.187-0.978 6.137-1.263 8.386-1.263 28.988 0 52.575 23.734 52.575 52.929 0 29.173-23.586 52.907-52.575 52.907-2.249 0-5.199-0.262-8.386-1.24v5.996c3.176-0.978 6.125-1.263 8.374-1.263zM472.202 926.162c4.611 0 8.329-3.755 8.329-8.385s-3.718-8.385-8.329-8.385c-4.588 0-8.318 3.755-8.318 8.385s3.73 8.385 8.318 8.385zM416.711 889.617c0 0.41 0.497 0.74 1.108 0.74h108.777c0.622 0 1.119-0.33 1.119-0.74v-9.682c0-0.41-0.497-0.74-1.119-0.74h-108.777c-0.61 0-1.108 0.33-1.108 0.74v9.682zM203.428 17.886l-2.43-0.375-73.438-62.271c-8.985 3.311-33.769 15.781-57.401 58.027-27.225 48.64-46.246 117.931-50.88 135.76 15.517 18.773 85.869 105.017 96.278 136.044 1.254 3.732 2.554 7.828 3.944 12.22 11.064 35.021 27.757 87.848 80.716 143.883l200.829 134.224 0.848 1.081c2.712 3.391 5.696 6.815 8.894 10.183 11.358 11.969 39.646 38.047 56.79 21.55 19.337-18.591 7.617-65.923-25.056-101.478l-48.043-41.62-98.188-91.83 1.266-5.086c6.928-27.819 4.475-80.93 0.644-108.089-7.549-53.51-18.263-97.894-80.218-141.38-4.001-2.799-4.961-8.329-2.181-12.356s8.261-4.995 12.262-2.196c20.004 14.040 35.103 28.308 46.721 42.871 6.555-16.418 22.49-28.023 41.16-28.023h77.483c-52.191-78.404-188.499-100.887-190.002-101.137zM472.202 154.795c-18.388 0-33.283 14.996-33.283 33.508 0 18.534 14.895 33.53 33.283 33.53 18.399 0 33.306-14.996 33.306-33.53 0-18.5-14.907-33.508-33.306-33.508zM641.488 249.776c0-1.24-0.995-2.241-2.204-2.241h-325.123c0.52 3.334 1.017 6.69 1.492 10.092 3.933 27.773 6.318 78.507 0.158 109.693l90.288 84.469 48.28 41.836 0.701 0.683c35.43 38.298 54.926 97.644 24.671 126.748-20.173 19.41-49.964 11.344-81.71-22.118-3.21-3.368-6.238-6.815-9.019-10.251l-86.061-57.526v306.358c0 1.24 0.983 2.253 2.204 2.253h334.119c1.209 0 2.204-1.001 2.204-2.253v-587.742zM681.281 607.050c19.269 0 34.956-15.781 34.956-35.191 0-19.399-15.687-35.18-34.956-35.18-14.263 0-15.359 26.931-15.359 35.18 0 8.26 1.096 35.191 15.359 35.191zM681.281 279.040c19.269 0 34.956-15.804 34.956-35.203s-15.687-35.18-34.956-35.18c-14.263 0-15.359 26.931-15.359 35.18 0 8.272 1.096 35.203 15.359 35.203zM681.281 388.38c19.269 0 34.956-15.781 34.956-35.18s-15.687-35.203-34.956-35.203c-14.263 0-15.359 26.931-15.359 35.203 0 8.249 1.096 35.18 15.359 35.18zM665.922 462.529c0 8.249 1.108 35.18 15.359 35.18 19.269 0 34.956-15.781 34.956-35.18s-15.687-35.169-34.956-35.169c-14.263 0-15.359 26.908-15.359 35.169z" />
<glyph unicode="&#xe91c;" glyph-name="down-arrow" horiz-adv-x="1843" d="M1822.862 833.143c27.822 29.721 27.001 76.037-1.857 104.763s-75.386 29.543-105.244 1.848l-808.307-804.613-780.016 804.613c-29.858 27.695-76.386 26.877-105.244-1.848s-29.679-75.041-1.857-104.763l887.116-897.143 915.407 897.143z" />
<glyph unicode="&#xe91d;" glyph-name="noun-plus" horiz-adv-x="819" d="M409.6 820.426c-4.915 0-8.192-3.277-8.192-8.192v-253.952h-253.952c-4.915 0-8.192-3.277-8.192-8.192s3.277-8.192 8.192-8.192h253.952v-253.952c0-4.915 3.277-8.192 8.192-8.192s8.192 3.277 8.192 8.192v253.952h253.952c4.915 0 8.192 3.277 8.192 8.192s-3.277 8.192-8.192 8.192h-253.952v253.952c0 4.915-3.277 8.192-8.192 8.192z" />
</font>
</defs>
</svg>
